<?xml version="1.0" standalone="no"?>
<!DOCTYPE svg PUBLIC "-//W3C//DTD SVG 20010904//EN"
 "http://www.w3.org/TR/2001/REC-SVG-20010904/DTD/svg10.dtd">
<svg version="1.0" xmlns="http://www.w3.org/2000/svg"
 width="281.000000pt" height="281.000000pt" viewBox="0 0 281.000000 281.000000"
 preserveAspectRatio="xMidYMid meet">
<metadata>
Created by potrace 1.11, written by Peter Selinger 2001-2013
</metadata>
<g transform="translate(0.000000,281.000000) scale(0.100000,-0.100000)"
fill="#000000" stroke="none">
<path d="M1446 2549 c-43 -55 -82 -99 -87 -97 -4 2 -41 36 -82 76 -41 39 -77
72 -80 72 -3 0 5 -32 19 -72 33 -99 34 -98 -28 -81 -70 18 -168 28 -168 17 0
-5 21 -40 45 -78 25 -38 45 -73 45 -76 0 -4 -24 -11 -54 -14 -30 -4 -67 -11
-82 -16 l-29 -8 35 -1 c44 -2 24 -15 -40 -27 -43 -8 -42 -9 41 -15 47 -3 91
-9 98 -13 8 -5 -24 -24 -82 -50 -137 -62 -226 -127 -278 -202 l-31 -46 30 16
c37 19 91 21 127 4 35 -16 62 -63 69 -123 12 -86 -65 -481 -110 -567 -19 -38
-18 -40 16 -33 24 5 29 4 24 -8 -3 -8 1 -21 9 -28 12 -12 11 -15 -7 -24 -30
-15 -31 -41 -2 -60 29 -20 66 -6 66 24 0 14 5 18 20 14 15 -4 20 0 20 15 0 28
-20 39 -35 19 -6 -9 -16 -12 -23 -8 -9 5 -5 11 13 19 14 6 25 16 25 22 0 5 7
10 15 10 9 0 12 -6 8 -16 -6 -17 33 -64 53 -64 7 0 20 10 28 22 9 12 16 17 16
10 0 -23 54 -10 65 16 11 26 23 29 21 6 -1 -21 27 -39 48 -31 9 4 16 16 16 27
0 11 6 20 14 20 12 0 12 -5 -1 -31 -14 -28 -14 -32 3 -50 9 -10 25 -19 34 -19
21 0 50 31 50 53 0 9 7 17 15 17 18 0 20 16 3 26 -6 4 -14 2 -16 -4 -5 -15
-22 -16 -22 -1 0 5 -13 27 -30 47 -70 88 -81 205 -31 342 53 143 158 278 249
317 81 36 246 15 329 -40 40 -27 105 -126 142 -216 50 -120 77 -280 51 -296
-14 -8 6 -35 26 -35 10 0 12 8 8 29 -3 16 -1 31 4 35 6 3 8 -1 6 -11 -3 -10 1
-26 8 -36 13 -18 15 -17 41 3 23 18 25 24 14 41 -6 10 -20 19 -30 19 -34 0 43
63 78 64 26 1 30 4 27 28 -2 21 2 27 20 30 16 2 23 10 23 24 0 12 8 31 18 42
18 20 18 23 -8 113 -35 124 -74 206 -131 280 -81 105 -148 164 -244 214 -90
46 -120 77 -120 123 0 23 31 52 90 86 40 23 42 26 19 26 -32 0 -42 9 -28 27 9
11 -3 13 -72 13 -74 0 -103 -4 -196 -25 l-22 -5 20 70 c23 86 23 83 -2 70 -20
-11 -20 -10 -14 34 4 25 6 46 4 46 -2 -1 -39 -46 -83 -101z m-396 -1348 c0 -6
-4 -13 -10 -16 -5 -3 -10 1 -10 9 0 9 5 16 10 16 6 0 10 -4 10 -9z"/>
<path d="M590 1707 c0 -3 -7 -32 -16 -64 -12 -47 -14 -88 -8 -215 l6 -158 24
0 c80 0 124 54 124 153 0 74 -29 117 -93 136 -52 16 -54 22 -36 100 5 24 7 46
4 49 -3 3 -5 3 -5 -1z"/>
<path d="M2244 1569 c-18 -20 -18 -21 1 -35 27 -20 42 -17 61 12 15 22 15 27
3 35 -23 14 -45 10 -65 -12z"/>
<path d="M2327 1556 c-3 -8 -2 -18 3 -21 13 -8 24 15 12 27 -6 6 -11 4 -15 -6z"/>
<path d="M1545 1526 c-45 -21 -73 -52 -86 -96 -10 -33 -9 -47 5 -85 44 -114
192 -127 256 -23 36 60 17 148 -41 191 -34 24 -96 31 -134 13z m4 -104 c20
-38 -31 -71 -59 -37 -6 8 -9 23 -5 35 8 25 51 27 64 2z"/>
<path d="M2304 1495 c-4 -14 -4 -29 0 -32 9 -10 35 29 29 44 -8 21 -22 15 -29
-12z"/>
<path d="M2220 1495 c-10 -12 -10 -18 0 -30 21 -25 54 -15 58 18 3 23 0 27
-21 27 -14 0 -30 -7 -37 -15z"/>
<path d="M2344 1475 c-8 -21 3 -47 19 -43 6 3 13 14 15 25 4 24 -26 40 -34 18z"/>
<path d="M2174 1424 c-5 -19 -1 -31 15 -47 l21 -21 22 22 22 22 -24 25 c-30
32 -48 32 -56 -1z"/>
<path d="M2112 1431 c-20 -12 -10 -46 13 -46 14 0 20 7 20 24 0 27 -13 35 -33
22z"/>
<path d="M2274 1415 c-29 -44 -3 -74 56 -65 34 5 39 41 10 70 -27 27 -46 25
-66 -5z"/>
<path d="M2112 1345 c-15 -33 -16 -32 9 -45 16 -9 26 -8 46 5 25 17 40 15 28
-4 -3 -6 -15 -11 -26 -11 -10 0 -19 -7 -19 -15 0 -8 4 -15 8 -15 5 0 14 -12
21 -26 10 -22 9 -26 -3 -21 -17 7 -46 -17 -46 -38 0 -7 7 -16 16 -19 31 -12
44 -6 44 19 0 15 6 25 14 25 12 0 13 -6 4 -30 -8 -26 -7 -34 7 -50 10 -11 24
-20 32 -20 20 0 55 40 49 56 -3 9 1 14 14 14 21 0 27 15 10 25 -6 4 -3 17 10
35 33 46 25 58 -27 44 -24 -7 -38 -53 -17 -61 7 -2 10 -11 7 -19 -5 -13 -8
-13 -24 2 -10 9 -22 13 -27 10 -4 -3 -8 5 -8 17 1 14 -8 26 -21 32 -34 15 -28
26 8 13 25 -9 34 -8 47 5 31 32 -19 93 -58 70 -13 -9 -19 -7 -28 8 -18 28 -56
24 -70 -6z"/>
<path d="M2360 1352 c-27 -22 -21 -57 12 -67 29 -10 42 8 34 49 -8 41 -15 43
-46 18z"/>
<path d="M2290 1321 c0 -12 26 -32 33 -25 9 10 -4 34 -19 34 -8 0 -14 -4 -14
-9z"/>
<path d="M1962 1273 c4 -34 22 -39 47 -14 30 30 26 41 -15 41 -32 0 -35 -2
-32 -27z"/>
<path d="M2057 1286 c-18 -19 -23 -46 -7 -46 12 0 32 38 28 52 -2 6 -11 4 -21
-6z"/>
<path d="M2085 1269 c-9 -14 24 -49 47 -49 18 0 23 16 12 44 -7 18 -49 22 -59
5z"/>
<path d="M1887 1264 c-3 -3 -3 -12 -1 -19 3 -7 -4 -15 -15 -18 -30 -7 -38 -37
-16 -53 15 -11 16 -14 3 -14 -8 0 -23 -9 -33 -20 -17 -19 -17 -20 6 -39 31
-26 44 -26 63 1 14 19 14 25 2 44 -13 19 -12 23 12 41 23 17 25 23 14 35 -10
13 -10 17 3 22 23 9 18 26 -8 26 -13 0 -26 -3 -30 -6z"/>
<path d="M2387 1264 c-3 -3 -3 -12 -1 -19 3 -7 -5 -15 -20 -19 -27 -7 -35 -33
-15 -53 8 -8 6 -13 -9 -17 -32 -10 -36 -38 -10 -58 28 -21 42 -22 57 -4 14 17
25 70 13 62 -4 -2 -14 -1 -21 4 -10 6 -9 9 7 14 18 6 21 15 20 52 0 41 -6 52
-21 38z"/>
<path d="M1812 1243 c-25 -10 -31 -17 -23 -26 5 -7 6 -18 2 -25 -6 -10 -10
-10 -20 2 -7 8 -20 12 -28 9 -12 -5 -14 -3 -8 6 6 10 -2 12 -36 6 -48 -8 -69
-20 -69 -40 0 -13 21 -25 46 -25 7 0 16 11 20 25 3 14 10 25 15 25 12 0 11 -4
-3 -34 -9 -22 -8 -29 7 -46 10 -11 24 -20 32 -20 20 0 55 40 49 56 -3 9 1 14
14 14 22 0 27 15 9 25 -7 5 -2 16 12 31 28 30 23 35 -19 17z"/>
<path d="M610 1230 c0 -5 -12 -8 -27 -7 -25 2 -28 -2 -31 -31 -2 -23 2 -34 14
-39 24 -9 49 10 49 38 0 15 7 26 20 30 19 5 19 5 -2 11 -13 3 -23 2 -23 -2z"/>
<path d="M690 1218 c0 -6 -3 -8 -6 -5 -13 13 -45 -14 -42 -36 4 -32 52 -31 56
1 2 12 8 22 13 22 12 0 12 -17 -1 -40 -8 -15 -5 -23 12 -40 12 -11 27 -20 33
-20 16 0 45 33 45 51 0 23 -38 59 -55 53 -11 -5 -13 -2 -9 10 5 12 0 16 -20
16 -14 0 -26 -5 -26 -12z"/>
<path d="M1968 1216 c-10 -7 -18 -22 -18 -32 1 -23 46 -58 66 -50 27 10 10 96
-19 96 -7 0 -20 -7 -29 -14z"/>
<path d="M2050 1216 c-6 -8 -10 -25 -8 -38 2 -18 9 -23 33 -23 24 0 31 5 33
23 4 25 -13 52 -33 52 -7 0 -18 -7 -25 -14z"/>
<path d="M507 1190 c-22 -32 -22 -63 -1 -58 27 5 39 33 28 59 l-10 23 -17 -24z"/>
<path d="M800 1185 c0 -8 7 -15 15 -15 8 0 15 7 15 15 0 8 -7 15 -15 15 -8 0
-15 -7 -15 -15z"/>
<path d="M1345 1191 c-3 -6 3 -14 12 -20 15 -9 16 -10 2 -11 -9 0 -23 -8 -32
-18 -16 -17 -15 -20 6 -40 29 -27 39 -27 61 -3 18 20 14 61 -5 61 -6 0 -7 5
-4 10 10 17 25 11 25 -9 0 -24 18 -37 32 -23 18 18 -23 61 -59 62 -17 0 -34
-4 -38 -9z"/>
<path d="M1450 1187 c0 -15 41 -57 56 -57 6 0 15 5 22 12 6 6 26 12 44 12 26
1 34 6 36 24 3 19 -1 22 -31 22 -20 0 -38 -6 -40 -12 -4 -10 -6 -10 -6 0 -1
17 -81 16 -81 -1z"/>
<path d="M1914 1167 c-8 -22 11 -46 26 -31 7 7 5 17 -4 30 -14 18 -15 18 -22
1z"/>
<path d="M604 1136 c-5 -12 -11 -13 -30 -4 -34 16 -49 -1 -28 -30 12 -17 19
-20 28 -12 10 7 21 4 41 -12 30 -23 57 -16 63 16 8 38 -61 76 -74 42z"/>
<path d="M1100 1135 c-9 -11 -16 -12 -31 -2 -14 9 -21 9 -31 -1 -9 -9 -7 -16
7 -32 12 -13 22 -17 28 -11 7 7 20 3 40 -11 22 -16 34 -19 46 -11 25 16 25 49
-1 67 -28 20 -42 20 -58 1z"/>
<path d="M1600 1135 c-9 -11 -17 -12 -31 -4 -35 18 -51 -7 -23 -36 11 -11 20
-13 29 -5 8 7 17 4 30 -10 25 -28 53 -25 67 6 11 23 10 29 -11 45 -28 23 -44
24 -61 4z"/>
<path d="M2096 1135 c-5 -13 -10 -14 -27 -5 -29 16 -45 0 -30 -29 14 -24 29
-27 37 -6 4 11 11 8 29 -13 19 -22 27 -25 41 -16 36 21 41 44 15 65 -28 23
-57 25 -65 4z"/>
<path d="M180 1118 c0 -3 81 -41 181 -84 161 -70 180 -80 175 -99 -4 -11 -14
-57 -23 -103 -20 -103 -9 -164 46 -249 34 -52 134 -156 154 -159 26 -5 66 -28
64 -36 -1 -6 4 -13 12 -16 8 -3 11 0 7 7 -4 6 -2 11 3 11 6 0 11 -6 11 -14 0
-16 60 -40 72 -28 4 4 -4 9 -19 10 -27 2 -40 9 -32 16 2 3 65 -11 139 -30 74
-19 153 -37 175 -39 22 -2 60 -6 85 -9 25 -4 65 -7 90 -7 38 -1 41 -2 20 -9
-24 -8 -24 -8 -3 -9 13 -1 22 -7 20 -13 -1 -10 20 -13 83 -11 62 1 75 -1 50
-7 -32 -7 -31 -8 20 -8 30 -1 127 -4 215 -8 88 -3 157 -2 152 2 -4 4 -47 7
-95 6 -48 -1 -105 3 -127 8 -35 8 -33 8 20 4 33 -2 80 -1 105 4 37 6 24 8 -67
9 -66 1 -113 -2 -113 -7 0 -6 -10 -10 -22 -10 -19 0 -20 2 -8 10 11 7 2 10
-31 10 -25 0 -68 2 -95 5 -38 4 -44 3 -29 -5 18 -9 17 -10 -5 -5 -14 2 -29 5
-33 5 -5 0 -6 4 -3 9 3 4 97 6 208 3 126 -3 236 0 289 7 86 11 163 6 138 -10
-7 -4 -19 -3 -25 2 -7 6 -39 7 -80 3 -52 -6 -63 -9 -44 -15 14 -4 21 -8 15 -9
-5 -1 6 -6 25 -10 52 -13 154 -1 250 27 88 26 115 42 125 74 7 21 -29 76 -39
60 -3 -5 1 -14 9 -21 18 -15 19 -42 3 -58 -17 -17 -29 -15 -21 3 5 14 2 14
-23 3 -22 -10 -28 -10 -32 0 -2 6 -8 12 -13 12 -6 0 -7 -5 -3 -12 5 -8 2 -9
-11 -5 -10 5 -22 2 -29 -7 -6 -8 -36 -17 -71 -20 -56 -5 -57 -5 -20 5 22 6 45
12 50 13 6 1 29 12 52 24 34 18 42 19 47 7 3 -8 11 -15 18 -15 8 0 9 3 3 8
-18 13 -15 31 9 49 50 40 89 150 111 313 18 131 19 240 3 240 -6 0 -26 -5 -44
-12 -28 -10 -36 -9 -52 5 -19 18 -42 23 -42 10 0 -5 -5 -15 -10 -23 -8 -13
-11 -13 -22 3 -13 18 -48 15 -48 -4 0 -5 -5 -9 -11 -9 -8 0 -7 5 1 15 22 26
-3 39 -26 14 -10 -12 -17 -24 -14 -28 3 -3 -5 -7 -16 -9 -16 -2 -23 4 -28 21
-5 20 -14 25 -48 30 -49 7 -68 -5 -68 -39 0 -31 -17 -30 -47 2 -29 32 -53 28
-73 -11 -12 -26 -15 -27 -18 -10 -5 23 -39 55 -58 55 -21 0 -27 -39 -10 -65 9
-13 16 -40 16 -60 0 -31 -3 -35 -25 -35 -16 0 -25 -6 -25 -15 0 -8 6 -15 14
-15 7 0 16 -12 19 -26 3 -18 1 -24 -9 -20 -13 5 -44 -18 -44 -33 0 -15 29 -33
47 -29 11 2 18 12 17 26 0 12 5 22 13 22 16 0 16 -2 2 -34 -9 -20 -9 -29 1
-41 10 -12 9 -16 -4 -21 -9 -3 -16 -14 -16 -24 0 -32 -60 -41 -87 -14 -11 11
-19 12 -26 5 -19 -19 -46 -12 -59 17 -7 15 -20 27 -28 27 -12 0 -16 -18 -18
-90 -6 -168 -47 -209 -207 -208 -204 1 -502 93 -612 188 -33 28 -37 37 -41 92
-2 33 1 84 7 112 13 59 62 165 93 198 23 24 15 47 -13 40 -10 -3 -22 -1 -25 4
-3 5 0 9 6 9 6 0 2 17 -10 40 -11 22 -24 40 -29 40 -24 0 -41 -14 -42 -34 0
-11 -3 -16 -5 -9 -3 7 -21 22 -40 33 -27 17 -33 26 -28 45 3 12 2 25 -3 28
-11 7 -343 21 -343 15z m1921 -247 c-15 -27 -95 -77 -160 -101 -31 -11 -69
-27 -84 -35 -20 -11 -27 -11 -25 -3 3 7 38 24 79 38 82 28 132 56 168 94 29
31 35 33 22 7z m-386 -101 c3 -5 -1 -10 -9 -10 -9 0 -16 5 -16 10 0 6 4 10 9
10 6 0 13 -4 16 -10z m190 -126 c41 -10 140 2 233 29 46 14 79 20 75 16 -5 -5
-54 -21 -109 -35 -157 -40 -240 -28 -276 41 -6 11 2 6 19 -12 16 -17 42 -35
58 -39z m298 -345 c-6 -6 -26 -13 -43 -15 -17 -2 -36 -6 -41 -9 -5 -4 -9 -2
-9 4 0 6 12 13 28 17 15 3 32 7 37 9 6 2 17 4 25 4 10 1 11 -2 3 -10z m-113
-23 c0 -17 -41 -29 -54 -16 -7 7 0 10 20 10 22 0 26 3 14 10 -13 8 -12 10 3
10 9 0 17 -6 17 -14z m-120 -26 c-18 -12 -47 -13 -54 -2 -2 4 12 9 32 10 28 2
33 0 22 -8z"/>
<path d="M972 1108 c-5 -5 -7 -20 -4 -34 5 -28 46 -34 56 -9 12 32 -29 66 -52
43z"/>
<path d="M1470 1105 c-18 -22 -3 -57 23 -53 29 4 35 43 9 57 -15 8 -23 7 -32
-4z"/>
<path d="M1964 1106 c-11 -29 1 -51 26 -51 31 0 40 33 14 52 -23 17 -33 16
-40 -1z"/>
<path d="M2197 1103 c-14 -13 -6 -33 13 -33 11 0 20 4 20 9 0 13 -26 32 -33
24z"/>
<path d="M700 1085 c0 -8 7 -15 15 -15 8 0 15 7 15 15 0 8 -7 15 -15 15 -8 0
-15 -7 -15 -15z"/>
<path d="M902 1077 c-39 -41 -26 -87 24 -87 28 0 34 4 34 20 0 20 -25 90 -33
90 -2 0 -13 -10 -25 -23z"/>
<path d="M1197 1094 c-13 -13 -7 -24 14 -24 11 0 19 5 17 12 -5 14 -22 21 -31
12z"/>
<path d="M1397 1074 c-31 -29 -30 -25 -17 -58 7 -20 17 -26 39 -26 39 0 44 11
31 59 -14 52 -21 55 -53 25z"/>
<path d="M1690 1086 c0 -10 9 -16 21 -16 24 0 21 23 -4 28 -10 2 -17 -3 -17
-12z"/>
<path d="M1893 1074 c-26 -29 -27 -37 -13 -65 11 -20 64 -27 74 -10 8 12 -17
94 -29 98 -6 1 -20 -9 -32 -23z"/>
<path d="M756 1074 c-21 -21 -20 -31 4 -44 28 -15 60 4 60 35 0 20 -5 25 -24
25 -14 0 -32 -7 -40 -16z"/>
<path d="M1245 1068 c-14 -21 -14 -24 2 -35 9 -7 22 -13 28 -13 17 0 45 34 45
53 0 27 -55 22 -75 -5z"/>
<path d="M1753 1078 c-24 -31 -24 -38 3 -48 21 -8 31 -7 45 6 30 27 25 54 -10
54 -16 0 -33 -6 -38 -12z"/>
<path d="M2247 1072 c-23 -25 -21 -31 10 -43 30 -11 46 0 58 39 6 19 3 22 -23
22 -16 0 -36 -8 -45 -18z"/>
<path d="M2384 1065 c-15 -23 -12 -65 6 -65 9 0 30 54 30 76 0 22 -18 16 -36
-11z"/>
<path d="M574 1065 c-10 -26 13 -42 32 -23 15 15 15 17 -5 27 -17 10 -22 9
-27 -4z"/>
<path d="M1074 1065 c-10 -26 13 -42 32 -23 15 15 15 17 -5 27 -17 10 -22 9
-27 -4z"/>
<path d="M830 1056 c0 -8 4 -17 8 -20 13 -8 35 11 28 23 -10 16 -36 14 -36 -3z"/>
<path d="M1330 1055 c0 -10 7 -15 18 -13 21 4 19 22 -2 26 -10 2 -16 -3 -16
-13z"/>
<path d="M1572 1053 c4 -21 33 -25 33 -3 0 8 -8 16 -18 18 -14 3 -18 -1 -15
-15z"/>
<path d="M1830 1056 c0 -9 7 -16 16 -16 9 0 14 5 12 12 -6 18 -28 21 -28 4z"/>
<path d="M2070 1050 c0 -15 5 -20 18 -18 9 2 17 10 17 18 0 8 -8 16 -17 18
-13 2 -18 -3 -18 -18z"/>
<path d="M2327 1055 c-4 -8 -3 -16 1 -19 13 -8 35 11 28 23 -10 15 -23 14 -29
-4z"/>
<path d="M670 1052 c0 -24 14 -42 32 -42 29 0 20 44 -9 48 -13 2 -23 -1 -23
-6z"/>
<path d="M1172 1038 c4 -30 43 -33 43 -3 0 13 -8 21 -23 23 -20 3 -23 0 -20
-20z"/>
<path d="M1670 1035 c0 -22 4 -26 23 -23 14 2 22 10 22 23 0 13 -8 21 -22 23
-19 3 -23 -1 -23 -23z"/>
<path d="M2170 1035 c0 -18 5 -25 19 -25 26 0 36 17 21 35 -19 23 -40 18 -40
-10z"/>
<path d="M1008 1029 c-23 -13 -23 -51 0 -72 28 -25 48 -21 65 16 16 31 15 33
-6 49 -25 20 -35 21 -59 7z"/>
<path d="M1107 1033 c-23 -23 10 -83 46 -83 26 0 30 20 11 56 -17 32 -41 43
-57 27z"/>
<path d="M1499 1019 c-18 -18 -19 -23 -6 -42 24 -37 43 -43 66 -23 26 24 27
48 3 69 -24 22 -38 21 -63 -4z"/>
<path d="M1601 1021 c-13 -24 20 -71 50 -71 30 0 33 26 9 60 -25 34 -45 38
-59 11z"/>
<path d="M2000 1020 c-25 -25 -25 -34 2 -60 28 -26 48 -22 67 12 14 24 14 28
-3 47 -24 26 -41 26 -66 1z"/>
<path d="M2100 1025 c-11 -13 -10 -21 7 -43 20 -27 63 -37 70 -17 5 16 -35 75
-51 75 -7 0 -19 -7 -26 -15z"/>
<path d="M816 1013 c-3 -3 -6 -17 -6 -31 0 -21 2 -22 15 -12 8 7 15 18 15 26
0 15 -15 26 -24 17z"/>
<path d="M1229 1001 c-20 -16 -21 -21 -10 -35 17 -21 57 -21 65 0 10 25 7 33
-13 44 -15 7 -25 5 -42 -9z"/>
<path d="M1316 1013 c-3 -3 -6 -17 -6 -31 0 -21 2 -22 15 -12 8 7 15 18 15 26
0 15 -15 26 -24 17z"/>
<path d="M1807 993 c-3 -15 -3 -30 0 -33 7 -7 34 32 30 44 -7 22 -25 15 -30
-11z"/>
<path d="M2306 994 c-4 -15 -4 -29 -1 -33 10 -9 34 29 28 45 -8 22 -20 17 -27
-12z"/>
<path d="M720 996 c-18 -22 5 -48 39 -44 20 2 26 9 26 28 0 19 -6 26 -26 28
-14 2 -31 -4 -39 -12z"/>
<path d="M1720 995 c-10 -12 -10 -18 0 -30 18 -22 57 -19 63 4 9 37 -38 56
-63 26z"/>
<path d="M2216 994 c-8 -21 11 -44 35 -44 24 0 42 33 27 48 -17 17 -55 15 -62
-4z"/>
<path d="M852 963 c2 -17 9 -28 18 -28 23 0 23 32 0 45 -20 11 -21 9 -18 -17z"/>
<path d="M957 983 c-4 -3 -1 -13 5 -21 11 -12 8 -14 -18 -8 -37 8 -59 -12 -49
-45 6 -18 12 -20 44 -15 20 3 44 6 54 6 21 0 23 38 2 46 -8 4 -15 15 -15 25 0
19 -11 25 -23 12z"/>
<path d="M1346 973 c-4 -9 0 -23 9 -32 14 -14 17 -14 25 -1 14 22 12 28 -9 39
-15 8 -20 7 -25 -6z"/>
<path d="M1450 975 c0 -8 7 -15 15 -15 8 0 15 7 15 15 0 8 -7 15 -15 15 -8 0
-15 -7 -15 -15z"/>
<path d="M1845 970 c-11 -36 26 -59 39 -24 8 22 8 22 -13 34 -16 8 -21 6 -26
-10z"/>
<path d="M1950 976 c0 -9 7 -16 16 -16 9 0 14 5 12 12 -6 18 -28 21 -28 4z"/>
<path d="M2344 976 c-8 -22 -2 -27 16 -16 12 7 12 12 3 21 -10 10 -14 9 -19
-5z"/>
<path d="M1402 948 c-30 -30 3 -82 39 -60 10 7 28 12 39 12 22 0 38 26 24 39
-16 15 -90 21 -102 9z"/>
<path d="M1567 939 c-16 -22 -14 -39 3 -39 5 0 14 9 21 21 16 31 -4 47 -24 18z"/>
<path d="M1067 943 c-12 -11 -7 -33 7 -33 12 0 26 20 26 36 0 7 -26 5 -33 -3z"/>
<path d="M1175 930 c-3 -11 1 -30 11 -45 19 -29 19 -29 45 -15 26 14 24 45 -3
64 -30 21 -45 20 -53 -4z"/>
<path d="M784 929 c-9 -15 15 -29 50 -29 28 0 29 0 11 20 -20 22 -50 26 -61 9z"/>
<path d="M1110 925 c-15 -18 -6 -45 13 -45 8 0 20 7 27 15 10 12 10 18 0 30
-16 19 -24 19 -40 0z"/>
<path d="M1281 926 c-7 -8 -11 -27 -9 -43 3 -25 7 -28 43 -28 46 0 57 21 31
60 -18 28 -47 32 -65 11z"/>
<path d="M1610 925 c-25 -30 10 -61 38 -33 7 7 8 17 1 30 -12 22 -23 23 -39 3z"/>
<path d="M1045 880 c-4 -6 7 -10 25 -10 18 0 29 4 25 10 -3 6 -15 10 -25 10
-10 0 -22 -4 -25 -10z"/>
<path d="M1537 883 c-12 -12 -7 -41 9 -58 15 -14 18 -14 33 0 21 18 35 20 25
3 -10 -16 22 -36 51 -30 32 6 39 17 31 48 -7 26 -43 33 -63 13 -8 -8 -15 -6
-25 10 -12 20 -47 28 -61 14z"/>
<path d="M1463 864 c-4 -11 2 -23 18 -35 45 -34 65 -17 33 29 -18 26 -42 29
-51 6z"/>
<path d="M1148 863 c6 -2 18 -2 25 0 6 3 1 5 -13 5 -14 0 -19 -2 -12 -5z"/>
<path d="M1373 863 c-22 -8 -14 -23 12 -23 18 0 25 -5 25 -19 0 -29 17 -35 31
-9 10 18 8 24 -11 40 -22 18 -35 21 -57 11z"/>
<path d="M1460 775 c0 -33 25 -42 50 -20 31 28 25 45 -15 45 -31 0 -35 -3 -35
-25z"/>
<path d="M1557 780 c-19 -28 -21 -40 -7 -40 12 0 32 38 28 52 -3 7 -12 1 -21
-12z"/>
<path d="M1587 765 c-8 -18 42 -60 56 -46 5 5 7 21 3 35 -5 19 -13 26 -30 26
-13 0 -26 -7 -29 -15z"/>
<path d="M1420 754 c0 -14 3 -14 15 -4 8 7 15 14 15 16 0 2 -7 4 -15 4 -8 0
-15 -7 -15 -16z"/>
<path d="M1421 714 c0 -11 3 -14 6 -6 3 7 2 16 -1 19 -3 4 -6 -2 -5 -13z"/>
<path d="M1468 716 c-24 -18 -22 -38 5 -65 22 -20 57 -21 57 -1 0 5 16 6 35 3
30 -5 36 -2 44 18 6 18 5 29 -7 42 -23 26 -49 21 -57 -10 l-6 -27 -12 25 c-15
28 -35 34 -59 15z"/>
<path d="M1430 661 c0 -11 5 -23 10 -26 6 -3 10 3 10 14 0 11 -4 23 -10 26 -5
3 -10 -3 -10 -14z"/>
<path d="M1600 635 c-10 -12 -16 -12 -26 -4 -15 12 -44 6 -44 -10 0 -19 32
-43 43 -32 7 7 18 4 35 -9 33 -27 50 -25 64 5 9 21 8 28 -7 45 -22 24 -48 26
-65 5z"/>
<path d="M2200 375 c-9 -11 -9 -15 -1 -15 7 0 10 -4 7 -9 -3 -5 6 -8 19 -8 28
0 29 1 15 28 -13 23 -23 24 -40 4z m33 -9 c4 -10 1 -13 -8 -9 -8 3 -12 9 -9
14 7 12 11 11 17 -5z"/>
<path d="M900 339 c-12 -8 -10 -9 8 -4 12 3 22 2 22 -2 0 -12 141 -46 165 -40
13 3 9 5 -12 6 -18 0 -33 6 -33 11 0 6 -11 10 -24 10 -13 0 -43 7 -66 15 -50
18 -42 17 -60 4z"/>
<path d="M1135 281 c-13 -5 2 -10 50 -14 39 -3 85 -9 104 -13 22 -5 32 -4 28
3 -4 6 -32 13 -64 17 -31 4 -66 9 -78 11 -11 2 -29 0 -40 -4z"/>
</g>
</svg>
